<?xml version="1.0" standalone="no"?>
<!DOCTYPE svg PUBLIC "-//W3C//DTD SVG 20010904//EN"
 "http://www.w3.org/TR/2001/REC-SVG-20010904/DTD/svg10.dtd">
<svg version="1.0" xmlns="http://www.w3.org/2000/svg"
 width="700.000000pt" height="700.000000pt" viewBox="0 0 700.000000 700.000000"
 preserveAspectRatio="xMidYMid meet">
<metadata>
Created by potrace 1.14, written by Peter Selinger 2001-2017
</metadata>
<g transform="translate(0.000000,700.000000) scale(0.100000,-0.100000)"
fill="#000000" stroke="none">
<path d="M3407 6124 c-1 -1 -37 -4 -80 -8 -92 -8 -230 -36 -342 -69 -607 -181
-1084 -708 -1200 -1327 -9 -47 -18 -94 -20 -105 -4 -16 -30 -28 -127 -59 -206
-66 -589 -235 -658 -290 -8 -7 -40 -28 -70 -46 -204 -123 -412 -332 -507 -510
-76 -143 -108 -266 -108 -420 0 -181 39 -313 140 -475 62 -99 69 -109 180
-220 105 -106 140 -135 255 -211 126 -84 132 -88 175 -109 22 -11 47 -25 55
-31 22 -16 229 -110 307 -140 186 -71 374 -130 567 -179 54 -13 100 -26 102
-28 2 -1 -70 -149 -159 -327 l-162 -325 0 -80 c0 -96 23 -147 92 -212 54 -50
125 -77 205 -75 119 2 205 66 275 206 308 616 358 711 378 709 11 -1 56 -5
100 -8 44 -4 87 -9 95 -10 100 -19 843 -27 1050 -12 145 11 224 19 232 23 3 2
16 -8 27 -23 11 -16 25 -33 31 -40 5 -7 10 -14 10 -16 0 -12 476 -717 503
-745 101 -105 276 -113 391 -18 87 71 126 201 92 306 -10 31 -91 163 -206 336
-105 156 -190 286 -190 288 0 5 62 24 101 31 128 25 484 131 604 180 305 125
492 225 680 364 88 65 263 245 316 326 110 164 160 317 162 490 3 173 -17 262
-90 411 -102 206 -285 395 -540 556 -192 121 -468 246 -715 325 -74 23 -120
43 -122 53 -3 8 -8 35 -11 60 -9 69 -52 232 -84 318 -134 360 -391 672 -721
876 -223 138 -486 227 -745 252 -63 6 -263 12 -268 8z m268 -595 c177 -27 383
-113 521 -218 65 -48 198 -178 239 -233 59 -78 138 -227 168 -319 29 -85 64
-251 60 -279 0 -3 -4 -30 -7 -60 -4 -32 -14 -60 -24 -70 -106 -95 -404 -198
-687 -236 -27 -4 -59 -8 -69 -10 -92 -17 -446 -23 -616 -11 -305 21 -586 88
-777 184 -110 56 -129 77 -137 154 -26 250 141 612 376 814 33 28 64 55 71 60
108 91 332 188 503 219 91 16 291 18 379 5z m-1750 -1560 c212 -217 611 -379
1070 -435 22 -3 51 -7 65 -9 152 -27 666 -26 885 0 92 11 140 19 228 36 412
80 700 208 893 399 l61 60 104 -36 c234 -81 414 -167 574 -276 213 -144 318
-284 318 -425 0 -35 -5 -69 -11 -75 -7 -7 -12 -19 -12 -28 0 -26 -65 -114
-137 -185 -121 -120 -343 -252 -583 -347 -112 -45 -329 -116 -420 -138 -122
-30 -217 -52 -240 -56 -14 -3 -32 -7 -40 -9 -8 -3 -33 -7 -55 -10 -22 -4 -47
-8 -55 -10 -19 -6 -202 -33 -266 -40 -27 -3 -60 -7 -74 -10 -14 -2 -56 -7 -95
-11 -38 -3 -86 -7 -105 -9 -241 -25 -781 -25 -1065 0 -123 11 -357 39 -412 49
-11 3 -43 8 -70 11 -79 12 -319 63 -442 96 -502 131 -920 351 -1085 572 -86
116 -102 214 -51 324 30 65 47 89 128 171 102 105 344 254 540 334 55 22 288
107 297 107 3 1 28 -22 55 -50z"/>
<path d="M1949 3485 c-77 -25 -165 -117 -187 -195 -2 -8 -6 -43 -7 -78 -10
-217 230 -364 425 -261 207 110 205 410 -4 516 -63 32 -160 40 -227 18z"/>
<path d="M4865 3482 c-196 -68 -261 -310 -125 -465 91 -103 249 -129 367 -60
216 126 178 457 -60 528 -66 19 -120 19 -182 -3z"/>
<path d="M3407 3192 c-46 -15 -101 -53 -132 -91 -70 -86 -84 -232 -31 -323 57
-97 143 -148 254 -150 165 -3 293 123 294 287 2 200 -194 340 -385 277z"/>
</g>
</svg>
